<?xml version="1.0" standalone="no"?>
<!DOCTYPE svg PUBLIC "-//W3C//DTD SVG 20010904//EN"
 "http://www.w3.org/TR/2001/REC-SVG-20010904/DTD/svg10.dtd">
<svg version="1.0" xmlns="http://www.w3.org/2000/svg"
 width="384.000000pt" height="384.000000pt" viewBox="0 0 384.000000 384.000000"
 preserveAspectRatio="xMidYMid meet">
<metadata>
Created by potrace 1.14, written by Peter Selinger 2001-2017
</metadata>
<g transform="translate(0.000000,384.000000) scale(0.100000,-0.100000)"
fill="#000000" stroke="none">
<path d="M1665 3304 c-295 -45 -577 -195 -795 -421 -157 -162 -282 -369 -335
-553 l-22 -75 -119 -5 c-136 -6 -128 3 -94 -105 11 -33 31 -104 45 -158 l25
-98 -20 -72 c-10 -40 -31 -113 -45 -164 -14 -50 -25 -97 -25 -102 0 -7 40 -11
113 -11 l113 0 27 -87 c33 -113 112 -272 187 -382 72 -106 251 -285 357 -358
107 -75 256 -148 381 -189 311 -101 595 -97 921 13 226 76 483 259 642 459 99
125 221 362 258 502 l12 42 116 0 116 0 -6 36 c-3 19 -24 100 -47 179 -34 120
-38 148 -29 172 13 34 89 302 89 314 0 5 -55 10 -122 11 l-121 3 -27 81 c-173
514 -615 889 -1144 970 -114 17 -332 16 -451 -2z m487 -78 c445 -85 844 -414
1006 -831 46 -120 54 -147 40 -143 -6 2 -21 33 -33 69 -65 190 -171 357 -324
509 -191 189 -400 304 -661 361 -138 31 -399 34 -530 6 -371 -78 -667 -278
-867 -585 -61 -92 -122 -218 -149 -304 -10 -32 -24 -58 -31 -58 -18 0 -17 8
13 92 119 333 362 605 684 768 120 61 329 121 460 134 81 7 314 -3 392 -18z
m-31 -42 c455 -76 839 -389 1010 -822 21 -53 35 -100 33 -104 -3 -4 -118 -8
-255 -8 l-250 0 -47 48 c-34 34 -53 63 -66 104 -20 65 -33 78 -99 102 -48 18
-108 68 -138 115 -14 21 -26 26 -94 32 -62 6 -94 16 -150 45 l-72 36 -66 -22
c-49 -17 -78 -21 -109 -16 -24 4 -60 9 -80 13 -32 5 -43 1 -75 -27 -46 -41
-108 -69 -150 -70 -49 0 -82 -17 -101 -51 -29 -55 -74 -100 -129 -131 -54 -31
-73 -52 -73 -85 0 -10 -5 -35 -11 -55 l-10 -38 -274 0 c-227 0 -275 2 -275 14
0 7 11 44 25 80 168 447 575 776 1044 845 98 15 311 12 412 -5z m-72 -514 c52
-36 99 -50 164 -50 47 0 52 -3 110 -63 47 -48 76 -68 117 -83 54 -19 55 -20
74 -78 14 -45 31 -72 74 -115 l56 -56 6 -82 c5 -65 13 -94 39 -143 31 -60 32
-64 17 -95 -31 -64 -40 -131 -28 -186 12 -51 12 -51 -22 -90 -45 -49 -74 -106
-82 -161 -7 -44 -28 -78 -49 -78 -26 0 -96 -62 -132 -117 -37 -55 -41 -58 -88
-64 -63 -9 -101 -23 -144 -57 -58 -45 -72 -50 -105 -41 -49 14 -137 11 -188
-8 l-47 -16 -73 37 c-61 31 -84 37 -137 38 -52 1 -67 5 -80 22 -41 53 -108
107 -154 124 -28 11 -55 26 -58 33 -4 8 -21 44 -39 82 -21 44 -46 79 -74 103
l-44 36 -4 82 c-3 65 -10 92 -32 133 -30 55 -30 54 -1 158 16 56 15 127 -1
169 -3 8 15 37 40 65 42 47 63 96 80 181 4 17 18 32 42 43 62 30 105 69 135
123 27 46 34 52 72 58 74 12 133 36 176 73 l42 35 61 -12 c66 -13 139 -7 178
15 36 20 50 18 99 -15z m1180 -721 c13 18 25 30 28 27 3 -3 -4 -18 -16 -34
-26 -38 -26 -41 4 -82 14 -18 22 -36 20 -39 -3 -2 -12 4 -19 15 -44 61 -40 59
-67 20 -13 -20 -28 -36 -32 -36 -5 0 5 19 22 42 l31 42 -25 32 c-34 45 -31 57
4 15 l28 -34 22 32z m91 -49 c0 -47 -4 -80 -10 -80 -11 0 -14 142 -3 153 12
13 13 7 13 -73z m47 -42 c-2 -24 -4 -5 -4 42 0 47 2 66 4 43 2 -24 2 -62 0
-85z m-2777 102 c0 -5 -25 -10 -56 -10 -54 0 -55 0 -52 -27 3 -25 8 -29 53
-34 l50 -6 -52 -1 c-52 -2 -53 -3 -53 -32 0 -28 1 -29 58 -33 l57 -3 -62 -2
-63 -2 0 80 0 80 60 0 c33 0 60 -4 60 -10z m124 0 c14 -5 26 -15 26 -22 0 -9
-3 -9 -12 0 -7 7 -29 12 -50 12 -31 0 -38 -4 -38 -19 0 -15 12 -23 48 -33 42
-12 47 -17 47 -43 0 -23 -6 -32 -27 -39 -35 -12 -81 3 -86 28 -3 16 -2 16 17
-3 34 -34 97 -24 89 14 -2 11 -20 23 -49 31 -64 19 -76 54 -25 74 28 12 31 12
60 0z m166 0 c0 -5 -11 -10 -25 -10 -24 0 -25 -2 -25 -70 0 -40 -4 -70 -10
-70 -6 0 -10 30 -10 70 0 68 -1 70 -25 70 -14 0 -25 5 -25 10 0 6 27 10 60 10
33 0 60 -4 60 -10z m1929 -32 c30 -100 31 -100 56 -28 13 41 28 66 38 68 15 3
17 -7 17 -72 0 -44 -4 -76 -10 -76 -6 0 -10 31 -11 73 l-1 72 -25 -72 c-13
-40 -28 -73 -33 -73 -5 0 -19 30 -32 68 l-23 67 -6 -70 -5 -70 -2 78 c-2 59 1
77 11 77 8 0 19 -19 26 -42z m197 -15 c20 -71 29 -83 38 -48 4 15 9 25 12 23
6 -7 -16 -68 -25 -68 -4 0 -13 19 -20 42 -7 23 -18 53 -24 67 -10 23 -12 19
-17 -44 l-6 -70 -2 78 c-2 62 1 77 13 77 9 0 20 -21 31 -57z m102 -20 c-1 -65
-2 -69 -5 -23 -5 72 -11 90 -23 70 -11 -17 -13 -9 -4 14 3 9 12 16 20 16 11 0
14 -17 12 -77z m-2469 -435 c75 -234 252 -477 459 -632 161 -121 380 -216 576
-251 179 -31 434 -16 609 36 403 119 739 439 878 834 15 44 33 81 40 84 14 4
9 -13 -42 -145 -169 -437 -567 -756 -1048 -839 -46 -8 -141 -15 -211 -15 -277
0 -532 77 -765 232 -122 80 -289 251 -374 382 -98 152 -195 386 -159 386 8 0
23 -30 37 -72z m565 26 c31 -30 50 -61 60 -94 23 -76 31 -86 94 -109 34 -12
72 -35 90 -54 17 -17 44 -47 60 -64 28 -31 35 -33 96 -33 54 0 75 -5 132 -35
76 -40 87 -41 155 -19 48 16 116 15 189 -2 20 -4 37 3 75 35 50 42 124 71 177
71 31 0 44 12 92 85 21 33 51 61 87 82 71 42 89 61 89 93 0 15 5 41 11 59 l11
31 274 0 c151 0 274 -2 274 -4 0 -20 -62 -169 -102 -247 -244 -470 -776 -758
-1293 -700 -523 59 -945 390 -1119 879 l-26 72 264 0 264 0 46 -46z"/>
<path d="M1894 3035 c-19 -41 -39 -75 -45 -75 -5 0 -21 12 -35 27 l-24 26 20
19 c47 44 9 73 -81 63 -32 -4 -59 -11 -59 -16 0 -5 6 -9 13 -9 17 0 37 -116
23 -130 -7 -7 0 -10 21 -10 35 0 52 15 28 24 -17 6 -21 56 -5 56 6 0 24 -16
41 -35 25 -28 38 -35 68 -35 43 0 55 8 40 26 -16 20 -2 34 36 34 32 0 55 -23
35 -35 -23 -14 -4 -21 83 -32 62 -7 96 -7 105 -1 23 19 12 25 -40 20 l-51 -5
7 59 c3 33 13 64 21 70 21 15 8 24 -34 23 -29 0 -33 -2 -20 -11 12 -9 14 -21
8 -65 -4 -30 -10 -57 -13 -60 -15 -15 -36 12 -61 76 -15 39 -31 71 -37 71 -5
0 -25 -34 -44 -75z m-97 29 c7 -19 -5 -31 -37 -36 -21 -2 -26 2 -28 25 -3 24
0 27 28 27 19 0 33 -6 37 -16z m141 -42 c-28 -5 -31 1 -16 33 l12 28 12 -29
c11 -26 10 -29 -8 -32z"/>
<path d="M1539 3047 c-45 -34 -46 -92 -2 -127 81 -64 175 46 106 123 -19 20
-80 23 -104 4z m83 -24 c20 -18 24 -73 6 -91 -20 -20 -65 -14 -82 10 -44 62
21 131 76 81z"/>
<path d="M2280 3041 c0 -6 4 -12 9 -15 11 -7 -25 -107 -42 -118 -15 -10 9 -28
38 -28 14 0 16 3 8 11 -14 14 -5 49 13 49 19 0 64 -22 64 -32 0 -4 -9 -17 -21
-29 -11 -11 -19 -22 -17 -24 2 -1 28 -15 58 -30 30 -15 67 -36 82 -47 25 -17
30 -18 49 -5 21 15 10 35 -12 22 -15 -10 -69 15 -69 32 0 8 5 23 10 34 9 16
14 17 30 6 11 -6 18 -17 16 -24 -11 -27 11 -20 29 9 18 31 18 31 -2 26 -11 -3
-28 -1 -37 4 -13 7 -14 13 -5 29 16 30 51 20 69 -18 18 -39 30 -42 30 -9 0 26
-29 48 -121 92 -58 29 -68 30 -63 7 10 -41 -30 -54 -75 -24 -17 11 -5 51 15
51 25 0 15 18 -17 29 -39 13 -39 13 -39 2z m188 -88 c-21 -49 -60 -113 -68
-113 -21 0 -21 25 0 71 19 39 28 49 48 49 13 0 22 -3 20 -7z"/>
<path d="M1410 2998 c-39 -19 -58 -33 -49 -35 12 -3 19 -20 24 -59 4 -31 5
-57 3 -59 -2 -2 -25 13 -51 32 -38 28 -45 38 -36 49 15 19 3 18 -32 -3 -33
-20 -37 -33 -11 -33 10 0 45 -18 76 -41 32 -23 60 -39 63 -36 3 3 6 43 7 89 1
70 4 83 19 86 22 4 61 -81 52 -115 -7 -28 -3 -28 38 -6 23 12 27 18 15 21 -20
4 -61 102 -52 125 8 21 12 22 -66 -15z"/>
<path d="M1160 2822 c0 -11 7 -41 15 -68 19 -62 19 -84 1 -84 -13 0 -79 74
-82 92 -1 4 -2 11 -3 15 0 3 -13 -4 -27 -18 l-26 -24 23 -5 c39 -9 47 -36 20
-64 -19 -20 -28 -23 -42 -15 -11 5 -19 19 -19 29 0 26 -7 25 -31 -2 -22 -27
-24 -40 -5 -36 19 4 96 -59 96 -78 0 -21 20 -13 38 14 13 20 13 22 -6 22 -11
0 -25 7 -32 16 -11 13 -9 19 13 41 22 22 28 24 41 13 9 -7 16 -22 16 -33 0
-18 5 -16 40 18 36 35 54 65 31 51 -5 -3 -12 2 -16 12 -8 22 44 67 60 51 5 -5
10 -14 10 -19 0 -16 9 -16 33 1 23 16 22 17 -54 53 -87 41 -94 43 -94 18z m59
-48 c-17 -21 -26 -17 -37 16 l-11 30 30 -16 c25 -12 28 -18 18 -30z"/>
<path d="M2605 2798 c-32 -17 -66 -32 -75 -33 -8 -2 -17 -4 -19 -4 -2 -1 2 -8
9 -16 15 -18 41 -20 38 -3 -5 19 32 21 53 2 24 -21 26 -59 3 -50 -9 3 -14 2
-12 -3 7 -17 126 -141 136 -141 24 0 21 19 -4 32 -53 26 -54 44 -4 87 25 21
50 36 57 34 21 -8 15 12 -12 37 -24 22 -25 22 -25 4 0 -21 -68 -94 -88 -94
-16 0 -15 34 3 94 16 54 19 86 8 86 -5 -1 -35 -15 -68 -32z m45 -22 c-8 -23
-13 -25 -30 -16 -26 14 -25 17 8 34 33 17 35 16 22 -18z"/>
<path d="M2832 2623 c-8 -3 -1 -11 19 -22 18 -9 34 -20 36 -26 5 -17 -91 -77
-111 -69 -16 6 -17 4 -8 -12 6 -10 17 -28 26 -39 15 -20 15 -20 16 1 0 30 88
88 108 72 8 -7 12 -24 10 -40 -4 -22 -1 -28 9 -24 8 3 11 1 8 -4 -9 -14 -81
-50 -100 -50 -16 0 -19 -9 -9 -34 8 -20 34 -21 34 -2 0 11 20 26 36 26 2 0 11
-14 20 -31 13 -26 14 -33 2 -40 -14 -10 -27 -12 -45 -10 -16 2 -16 -8 1 -38
11 -21 15 -22 22 -8 12 21 100 58 120 50 13 -5 15 -2 9 18 -12 38 -21 43 -44
20 -26 -26 -34 -22 -51 20 -11 26 -11 32 1 40 8 5 22 7 32 5 9 -2 17 0 17 6 0
13 -47 93 -88 151 -33 46 -43 51 -70 40z"/>
<path d="M918 2588 c-13 -18 -32 -46 -42 -62 -16 -26 -17 -28 -2 -23 20 8 116
-49 116 -69 0 -26 15 -14 53 42 32 48 35 58 25 77 -11 21 -12 20 -19 -16 -8
-52 -30 -73 -58 -57 -28 15 -23 42 9 50 l24 6 -24 17 c-30 21 -44 22 -36 2 14
-37 -20 -59 -44 -30 -20 24 2 62 39 70 17 4 29 11 25 16 -11 19 -42 8 -66 -23z"/>
<path d="M845 2454 c-18 -19 -55 -88 -55 -105 0 -6 6 -9 14 -6 20 8 116 -34
116 -50 0 -7 4 -13 9 -13 11 0 51 92 51 118 0 26 -25 46 -50 39 -13 -3 -24 1
-30 14 -13 23 -33 24 -55 3z m38 -17 c3 -7 -1 -28 -9 -46 -12 -28 -16 -31 -34
-21 -17 9 -19 14 -9 33 25 47 42 59 52 34z m70 -56 c-2 -45 -14 -55 -46 -40
-32 15 -33 19 -6 53 29 37 54 30 52 -13z"/>
<path d="M1800 2615 c-9 -11 -16 -12 -30 -2 -15 9 -23 8 -37 -6 -11 -9 -28
-14 -39 -11 -12 3 -26 -1 -33 -10 -8 -9 -27 -16 -43 -16 -16 0 -31 -6 -34 -15
-4 -8 -17 -15 -30 -15 -12 0 -29 -8 -36 -19 -7 -10 -22 -20 -33 -22 -11 -2
-24 -14 -30 -26 -5 -12 -19 -23 -30 -25 -11 -2 -24 -12 -29 -24 -5 -11 -19
-25 -30 -30 -12 -5 -22 -19 -24 -30 -2 -12 -12 -24 -23 -27 -12 -3 -19 -14
-19 -29 0 -14 -8 -27 -22 -33 -15 -7 -22 -18 -21 -32 2 -14 -5 -27 -18 -34
-15 -7 -19 -17 -15 -33 4 -15 -1 -28 -15 -39 -13 -12 -18 -24 -14 -38 4 -11 1
-26 -5 -34 -7 -8 -10 -25 -7 -37 4 -13 0 -29 -9 -39 -12 -14 -13 -22 -4 -39 9
-16 8 -25 -1 -36 -9 -11 -9 -21 -2 -37 7 -16 8 -29 1 -41 -7 -13 -6 -22 5 -34
10 -11 13 -27 10 -45 -3 -15 0 -34 7 -42 6 -8 9 -23 5 -34 -4 -14 0 -24 14
-33 14 -9 19 -19 15 -35 -4 -15 0 -26 15 -35 12 -7 21 -23 21 -35 0 -12 9 -27
20 -33 11 -6 20 -16 19 -23 -3 -26 2 -36 20 -42 10 -3 22 -17 25 -30 4 -15 14
-25 24 -25 10 0 22 -12 29 -30 7 -20 18 -30 31 -30 12 0 23 -9 27 -20 4 -13
15 -20 30 -20 15 0 26 -7 30 -20 4 -13 15 -20 33 -20 17 0 32 -8 40 -21 9 -14
20 -19 34 -16 14 4 27 -1 38 -15 14 -17 20 -19 38 -9 18 10 23 9 28 -4 4 -10
16 -15 33 -14 14 2 36 -3 49 -10 18 -10 26 -10 38 0 12 9 20 9 39 -1 19 -10
27 -10 39 -1 11 9 20 9 34 2 14 -7 24 -6 38 4 11 8 29 11 42 8 12 -3 29 0 37
7 8 6 23 9 33 6 11 -4 25 1 36 12 10 12 25 17 40 15 17 -4 27 1 35 16 7 13 22
21 37 21 17 0 28 7 31 20 3 13 13 19 26 17 14 -1 25 6 32 20 5 12 19 23 30 25
11 2 24 13 30 25 5 12 20 24 32 28 15 3 23 13 23 28 0 13 9 26 23 32 12 6 22
19 22 30 0 11 9 25 20 30 11 6 21 23 23 38 2 16 10 31 18 34 8 3 14 18 14 33
0 16 7 30 16 34 12 4 15 14 11 34 -3 17 1 34 11 45 13 14 14 22 5 36 -9 14 -8
22 5 34 12 13 13 21 5 39 -7 16 -7 28 1 41 8 12 8 22 0 35 -8 12 -8 24 -1 39
8 18 6 27 -6 40 -12 14 -13 23 -5 36 7 14 6 23 -7 37 -10 12 -14 26 -10 43 5
19 2 28 -13 36 -14 8 -19 17 -15 32 4 15 0 27 -13 36 -10 7 -19 23 -19 35 0
13 -10 27 -22 34 -13 6 -20 13 -17 17 10 10 -7 47 -22 47 -8 0 -19 12 -24 26
-6 14 -19 28 -29 31 -11 3 -22 16 -25 29 -4 15 -14 24 -25 24 -10 0 -26 12
-35 26 -10 14 -25 24 -34 22 -9 -2 -22 6 -27 17 -6 11 -22 22 -35 23 -14 2
-29 10 -33 18 -4 8 -21 14 -36 14 -17 0 -31 7 -35 16 -5 12 -14 15 -35 11 -20
-4 -33 -1 -42 9 -7 9 -21 13 -32 10 -11 -2 -27 0 -37 7 -13 8 -25 8 -42 0 -16
-7 -28 -7 -40 1 -13 8 -23 8 -38 -1 -12 -8 -21 -9 -25 -3 -9 15 -41 12 -55 -5z
m45 -15 c3 -6 -1 -13 -10 -16 -19 -8 -30 0 -20 15 8 14 22 14 30 1z m70 1 c7
-12 -12 -24 -25 -16 -11 7 -4 25 10 25 5 0 11 -4 15 -9z m75 -6 c0 -8 -6 -15
-14 -15 -20 0 -29 17 -14 23 22 9 28 7 28 -8z m-220 -16 c0 -5 -7 -9 -15 -9
-15 0 -20 12 -9 23 8 8 24 -1 24 -14z m286 -7 c-22 -5 -30 3 -21 18 5 8 11 7
22 -2 15 -12 14 -13 -1 -16z m-358 -10 c2 -7 -3 -12 -12 -12 -9 0 -16 7 -16
16 0 17 22 14 28 -4z m218 2 c14 4 32 2 39 -4 10 -8 19 -8 35 0 16 9 24 8 37
-5 8 -9 22 -14 30 -11 8 3 24 -1 37 -9 13 -9 30 -13 38 -10 8 3 21 -1 28 -10
7 -8 20 -15 30 -15 9 0 25 -9 36 -21 10 -11 26 -18 35 -16 11 3 19 -2 22 -14
3 -11 14 -19 24 -19 11 0 25 -11 31 -25 7 -15 20 -25 32 -25 14 0 20 -7 20
-21 0 -12 8 -23 20 -26 11 -3 20 -14 20 -24 0 -10 9 -24 20 -31 11 -7 20 -21
20 -30 0 -10 9 -23 20 -30 12 -8 20 -24 20 -39 0 -15 7 -30 16 -33 10 -4 13
-13 9 -25 -3 -11 1 -25 10 -35 10 -9 13 -24 10 -39 -4 -15 -1 -28 9 -36 12
-10 13 -17 3 -31 -9 -15 -8 -23 7 -38 12 -15 14 -22 6 -27 -7 -5 -10 -19 -6
-38 3 -16 1 -36 -5 -43 -7 -9 -7 -19 0 -32 8 -15 7 -23 -5 -33 -9 -8 -13 -21
-10 -35 4 -13 0 -27 -10 -35 -10 -8 -13 -21 -9 -36 4 -16 1 -25 -10 -29 -8 -4
-15 -17 -15 -30 0 -12 -7 -27 -17 -32 -9 -5 -17 -18 -18 -29 -1 -17 -13 -33
-65 -88 -11 -12 -20 -26 -20 -32 0 -6 -9 -15 -20 -18 -11 -3 -25 -15 -30 -26
-6 -10 -17 -19 -25 -19 -8 0 -20 -9 -27 -20 -7 -11 -20 -20 -30 -20 -9 0 -23
-9 -31 -20 -9 -12 -20 -18 -30 -14 -8 3 -24 -3 -34 -13 -10 -10 -28 -17 -41
-15 -13 2 -24 -3 -28 -12 -4 -11 -13 -14 -30 -10 -13 4 -31 1 -38 -5 -8 -7
-25 -9 -39 -6 -14 4 -27 3 -30 -2 -6 -9 -83 -9 -107 0 -8 3 -26 6 -40 7 -62 1
-86 5 -96 19 -7 9 -20 12 -35 8 -18 -5 -28 -1 -37 14 -8 13 -19 18 -29 15 -10
-4 -21 1 -30 14 -8 11 -23 20 -33 20 -11 0 -24 9 -30 20 -6 11 -19 20 -29 20
-10 0 -21 9 -24 21 -3 11 -15 23 -26 26 -11 3 -23 13 -26 24 -3 10 -15 21 -26
24 -10 4 -19 15 -19 26 0 10 -9 24 -20 31 -11 7 -20 21 -20 30 0 10 -8 23 -19
29 -10 7 -16 20 -14 29 2 9 -3 22 -11 29 -9 8 -16 24 -16 36 0 12 -7 28 -15
35 -9 8 -13 21 -9 36 4 13 1 30 -5 38 -6 7 -9 21 -5 30 3 9 3 24 -1 34 -11 25
-12 103 -2 109 5 3 6 16 2 30 -3 14 -1 31 6 39 6 8 9 23 6 34 -3 10 2 25 10
31 7 7 13 22 11 34 -1 12 5 29 14 38 9 10 14 25 11 37 -4 14 0 20 11 20 9 0
19 12 22 28 4 15 16 33 26 40 10 7 18 19 18 26 0 8 11 21 25 30 14 9 25 23 25
31 0 8 7 15 15 15 8 0 19 9 25 20 6 11 17 20 25 20 8 0 22 11 31 25 9 14 24
25 34 25 10 0 23 7 30 15 7 8 23 15 36 15 13 0 27 7 32 17 5 9 16 14 25 10 8
-3 24 1 36 9 12 9 30 13 40 9 10 -3 24 1 31 10 9 11 17 12 32 4 16 -9 24 -7
36 5 12 11 19 13 29 5 7 -6 24 -8 39 -5z m218 1 c4 -10 -1 -15 -14 -15 -20 0
-26 11 -13 23 10 11 20 8 27 -8z m-504 -30 c0 -8 -7 -15 -15 -15 -8 0 -15 7
-15 15 0 8 7 15 15 15 8 0 15 -7 15 -15z m570 -1 c0 -17 -22 -14 -28 4 -2 7 3
12 12 12 9 0 16 -7 16 -16z m-635 -24 c3 -6 -1 -13 -10 -16 -19 -8 -30 0 -20
15 8 14 22 14 30 1z m703 -8 c2 -7 -3 -12 -12 -12 -9 0 -16 7 -16 16 0 17 22
14 28 -4z m-768 -37 c0 -8 -7 -15 -15 -15 -8 0 -15 7 -15 15 0 8 7 15 15 15 8
0 15 -7 15 -15z m830 -6 c0 -5 -7 -9 -15 -9 -15 0 -20 12 -9 23 8 8 24 -1 24
-14z m-882 -41 c-6 -18 -28 -21 -28 -4 0 9 7 16 16 16 9 0 14 -5 12 -12z m942
-3 c0 -8 -7 -15 -15 -15 -8 0 -15 7 -15 15 0 8 7 15 15 15 8 0 15 -7 15 -15z
m-1000 -50 c0 -8 -7 -15 -15 -15 -8 0 -15 7 -15 15 0 8 7 15 15 15 8 0 15 -7
15 -15z m1048 -3 c2 -7 -3 -12 -12 -12 -9 0 -16 7 -16 16 0 17 22 14 28 -4z
m-1090 -54 c-6 -18 -28 -21 -28 -4 0 9 7 16 16 16 9 0 14 -5 12 -12z m1140 0
c-6 -18 -28 -21 -28 -4 0 9 7 16 16 16 9 0 14 -5 12 -12z m-1180 -60 c-6 -18
-28 -21 -28 -4 0 9 7 16 16 16 9 0 14 -5 12 -12z m1217 3 c7 -12 -12 -24 -25
-16 -11 7 -4 25 10 25 5 0 11 -4 15 -9z m-1259 -89 c-4 -3 -12 0 -19 7 -9 9
-9 14 3 21 11 7 16 5 18 -6 2 -9 1 -18 -2 -22z m1286 6 c-15 -15 -26 -4 -18
18 5 13 9 15 18 6 9 -9 9 -15 0 -24z m-1310 -70 c-15 -15 -26 -4 -18 18 5 13
9 15 18 6 9 -9 9 -15 0 -24z m1345 9 c-6 -20 -27 -19 -27 2 0 14 5 19 15 14 9
-3 14 -10 12 -16z m-1365 -79 c-15 -15 -26 -4 -18 18 5 13 9 15 18 6 9 -9 9
-15 0 -24z m1388 12 c0 -13 -19 -22 -30 -15 -14 9 0 34 16 28 8 -3 14 -9 14
-13z m-1398 -82 c-15 -15 -26 -4 -18 18 5 13 9 15 18 6 9 -9 9 -15 0 -24z
m1403 13 c7 -12 -12 -24 -25 -16 -11 7 -4 25 10 25 5 0 11 -4 15 -9z m-1405
-75 c0 -8 -4 -17 -9 -20 -10 -7 -23 19 -14 28 11 11 23 6 23 -8z m1405 -16
c-5 -8 -11 -8 -17 -2 -6 6 -7 16 -3 22 5 8 11 8 17 2 6 -6 7 -16 3 -22z
m-1400 -58 c0 -18 -20 -15 -23 4 -3 10 1 15 10 12 7 -3 13 -10 13 -16z m1395
-16 c-15 -15 -33 4 -19 20 10 12 14 12 20 2 5 -7 4 -17 -1 -22z m-1388 -68
c-15 -15 -26 -4 -18 18 5 13 9 15 18 6 9 -9 9 -15 0 -24z m1383 13 c7 -12 -12
-24 -25 -16 -11 7 -4 25 10 25 5 0 11 -4 15 -9z m-1355 -76 c0 -8 -7 -15 -15
-15 -8 0 -15 7 -15 15 0 8 7 15 15 15 8 0 15 -7 15 -15z m1337 -2 c2 -6 -3
-13 -12 -16 -10 -5 -15 0 -15 14 0 21 21 22 27 2z m-1316 -76 c-13 -13 -31 0
-24 19 4 11 8 12 20 3 9 -8 10 -16 4 -22z m1289 8 c0 -8 -7 -15 -15 -15 -8 0
-15 7 -15 15 0 8 7 15 15 15 8 0 15 -7 15 -15z m-1255 -63 c0 -18 -20 -15 -23
4 -3 10 1 15 10 12 7 -3 13 -10 13 -16z m1221 7 c8 -14 -11 -33 -25 -25 -11 7
-4 36 9 36 5 0 12 -5 16 -11z m-1178 -72 c2 -10 -3 -17 -12 -17 -10 0 -16 9
-16 21 0 24 23 21 28 -4z m1134 -2 c0 -5 -5 -11 -11 -13 -6 -2 -11 4 -11 13 0
9 5 15 11 13 6 -2 11 -8 11 -13z m-1092 -50 c0 -8 -4 -15 -9 -15 -13 0 -22 16
-14 24 11 11 23 6 23 -9z m1050 0 c0 -8 -7 -15 -15 -15 -16 0 -20 12 -8 23 11
12 23 8 23 -8z m-992 -58 c2 -10 -3 -17 -12 -17 -10 0 -16 9 -16 21 0 24 23
21 28 -4z m940 1 c-6 -18 -28 -21 -28 -4 0 9 7 16 16 16 9 0 14 -5 12 -12z
m-888 -44 c0 -9 -5 -14 -12 -12 -18 6 -21 28 -4 28 9 0 16 -7 16 -16z m830 1
c0 -8 -7 -15 -15 -15 -8 0 -15 7 -15 15 0 8 7 15 15 15 8 0 15 -7 15 -15z
m-765 -36 c10 -15 -1 -23 -20 -15 -9 3 -13 10 -10 16 8 13 22 13 30 -1z m705
-10 c0 -5 -7 -9 -15 -9 -15 0 -20 12 -9 23 8 8 24 -1 24 -14z m-645 -39 c-5
-8 -11 -8 -17 -2 -6 6 -7 16 -3 22 5 8 11 8 17 2 6 -6 7 -16 3 -22z m585 10
c0 -5 -5 -12 -11 -16 -14 -8 -33 11 -25 25 7 11 36 4 36 -9z m-510 -25 c0 -8
-7 -15 -15 -15 -8 0 -15 7 -15 15 0 8 7 15 15 15 8 0 15 -7 15 -15z m435 5 c3
-6 -1 -13 -10 -16 -19 -8 -30 0 -20 15 8 14 22 14 30 1z m-365 -25 c0 -8 -7
-15 -15 -15 -8 0 -15 7 -15 15 0 8 7 15 15 15 8 0 15 -7 15 -15z m295 6 c7
-12 -12 -24 -25 -16 -11 7 -4 25 10 25 5 0 11 -4 15 -9z m-220 -11 c3 -6 -1
-13 -10 -16 -19 -8 -30 0 -20 15 8 14 22 14 30 1z m150 0 c3 -6 -1 -13 -10
-16 -19 -8 -30 0 -20 15 8 14 22 14 30 1z m-77 -11 c-2 -6 -8 -10 -13 -10 -5
0 -11 4 -13 10 -2 6 4 11 13 11 9 0 15 -5 13 -11z"/>
<path d="M1439 2025 c-114 -62 -72 -255 56 -255 35 0 46 -5 59 -25 18 -27 45
-32 64 -13 19 19 14 29 -12 22 -34 -8 -41 11 -17 45 85 118 -31 291 -150 226z
m107 -28 c22 -19 28 -34 32 -80 3 -34 -1 -69 -8 -87 -12 -29 -30 -41 -30 -20
0 6 -15 18 -34 27 -32 15 -37 15 -59 0 -24 -15 -25 -15 -31 6 -32 122 51 221
130 154z m-41 -187 c23 -25 15 -34 -24 -25 -36 8 -49 24 -30 36 21 13 34 11
54 -11z"/>
<path d="M1763 2028 c-5 -7 -27 -60 -48 -118 -21 -58 -47 -113 -58 -122 -19
-17 -18 -18 29 -18 43 0 46 1 29 14 -16 11 -17 19 -9 47 9 32 12 34 62 37 52
3 53 2 67 -32 19 -45 19 -45 -7 -56 -18 -7 -9 -9 37 -9 55 -1 58 0 38 14 -12
9 -40 63 -68 135 -26 66 -51 120 -55 120 -4 0 -12 -6 -17 -12z m37 -100 l18
-48 -45 0 c-44 0 -45 1 -38 27 13 52 37 99 42 83 3 -8 14 -36 23 -62z"/>
<path d="M1930 2031 c0 -5 9 -11 20 -14 18 -5 20 -14 20 -110 0 -98 -2 -107
-22 -121 -21 -15 -16 -16 75 -16 91 0 100 2 122 25 32 31 32 70 0 99 l-24 22
21 21 c27 28 18 67 -22 88 -32 16 -190 22 -190 6z m180 -31 c37 -37 1 -80 -67
-80 l-43 0 0 43 c0 24 3 47 7 50 15 15 83 7 103 -13z m10 -120 c39 -39 18 -84
-44 -96 -63 -11 -71 -5 -74 59 l-3 57 51 0 c37 0 55 -5 70 -20z"/>
<path d="M2302 2027 c-5 -6 -28 -61 -51 -121 -23 -60 -50 -115 -59 -122 -15
-12 -10 -13 32 -14 45 0 48 1 31 14 -16 11 -17 19 -9 47 9 32 12 34 62 37 52
3 53 2 67 -32 19 -45 19 -45 -7 -56 -18 -7 -9 -9 37 -9 48 0 56 2 39 11 -15 7
-36 47 -69 129 -26 65 -50 121 -55 124 -4 3 -12 -1 -18 -8z m23 -64 c33 -79
32 -83 -18 -83 l-46 0 22 60 c12 33 23 60 24 60 2 0 10 -17 18 -37z"/>
<path d="M2778 1408 c-49 -51 -30 -126 42 -163 59 -30 110 -8 110 48 0 21 4
25 18 21 9 -3 1 9 -18 27 -19 18 -34 39 -32 46 5 23 -13 14 -31 -16 -22 -37
-21 -41 5 -38 14 1 27 -7 37 -25 15 -25 14 -29 -1 -45 -21 -20 -47 -11 -102
38 -28 24 -36 38 -34 58 3 23 9 27 47 31 41 5 42 6 25 21 -32 27 -38 27 -66
-3z"/>
<path d="M916 1369 c-55 -43 -71 -109 -35 -148 22 -24 79 -27 86 -4 3 8 -6 10
-29 7 -44 -8 -66 15 -52 54 11 30 90 94 112 90 30 -6 37 -34 19 -72 -20 -44
-3 -49 33 -11 13 14 19 25 12 25 -6 0 -14 10 -18 23 -17 58 -78 76 -128 36z"/>
<path d="M2687 1282 c-20 -22 -21 -32 -4 -32 7 0 28 -16 47 -35 39 -40 38 -40
-42 -19 -56 14 -62 14 -79 -2 -22 -20 -25 -36 -5 -28 13 5 118 -106 115 -123
-4 -23 3 -23 21 0 23 29 25 38 7 31 -14 -5 -93 73 -84 83 3 2 40 -5 82 -17 42
-12 79 -19 82 -16 3 3 -22 37 -57 76 -39 44 -60 76 -56 85 8 21 -7 19 -27 -3z"/>
<path d="M1085 1258 c7 -18 -95 -134 -113 -130 -10 2 -7 -6 9 -27 26 -32 45
-41 35 -16 -3 8 6 27 19 42 19 23 26 26 36 15 11 -10 9 -21 -11 -57 -22 -40
-23 -46 -9 -60 18 -18 49 -10 49 12 0 8 -4 11 -10 8 -14 -8 -13 -5 8 36 10 19
23 34 29 32 7 -3 21 5 33 17 27 27 20 53 -28 103 -36 37 -55 47 -47 25z m56
-59 c9 -18 7 -25 -10 -42 -19 -20 -22 -20 -38 -5 -15 16 -15 19 1 42 20 32 32
33 47 5z"/>
<path d="M2536 1129 c-27 -21 -35 -42 -13 -34 16 6 98 -120 91 -140 -8 -21 1
-19 36 7 28 20 33 42 7 33 -16 -6 -98 120 -91 140 8 20 2 19 -30 -6z"/>
<path d="M1218 1127 c13 -16 -65 -145 -91 -149 -12 -2 -2 -15 38 -46 30 -23
60 -43 65 -45 6 -1 20 13 31 31 21 32 13 45 -11 17 -16 -20 -33 -19 -60 3 -22
18 -22 19 -5 46 20 30 41 29 38 -3 -4 -29 4 -26 27 12 24 38 26 54 5 37 -26
-22 -40 3 -20 34 21 31 29 32 54 7 13 -13 17 -28 14 -47 l-4 -29 20 24 c12 13
21 27 21 32 0 10 -109 89 -123 89 -6 0 -5 -5 1 -13z"/>
<path d="M2390 1028 c-23 -14 -30 -23 -20 -25 24 -5 92 -144 78 -160 -18 -22
7 -15 66 20 59 34 63 41 44 82 -16 36 -30 31 -23 -8 6 -29 3 -36 -19 -50 l-26
-17 -36 72 c-29 58 -34 75 -25 90 15 24 4 23 -39 -4z"/>
<path d="M1363 1020 c8 -32 -42 -150 -68 -160 -17 -6 -10 -12 42 -39 70 -35
95 -32 131 14 55 69 36 132 -51 176 -58 30 -60 30 -54 9z m75 -46 c32 -22 30
-83 -4 -123 -28 -33 -50 -38 -77 -18 -16 11 -15 17 15 85 17 39 34 72 38 72 3
0 16 -7 28 -16z"/>
<path d="M2250 866 c0 -74 -4 -106 -12 -109 -7 -2 -10 -7 -7 -11 4 -4 24 1 45
10 29 13 34 18 21 21 -24 6 -19 47 7 51 27 6 42 -13 26 -33 -16 -19 -1 -20 47
-3 36 13 44 28 15 28 -11 0 -39 30 -71 75 -30 41 -58 75 -62 75 -5 0 -9 -47
-9 -104z m47 5 c10 -16 9 -20 -3 -25 -23 -9 -24 -8 -24 19 0 30 11 32 27 6z"/>
<path d="M1540 935 c10 -12 9 -29 -6 -87 -9 -40 -24 -78 -33 -85 -18 -13 -21
-12 68 -38 30 -8 58 -12 63 -7 4 4 10 23 14 42 l5 35 -18 -27 c-31 -48 -90
-33 -78 21 7 34 35 43 35 11 0 -33 18 -23 29 17 11 39 4 66 -11 39 -5 -9 -16
-16 -24 -16 -11 0 -13 7 -8 28 11 52 11 52 44 41 26 -10 35 -25 31 -51 0 -5 3
-8 8 -8 8 0 20 32 21 52 0 7 -122 48 -142 48 -6 0 -5 -6 2 -15z"/>
<path d="M2103 923 c-25 -5 -30 -18 -10 -26 18 -7 43 -157 27 -167 -7 -4 -8
-10 -3 -13 15 -9 84 13 78 24 -4 5 -10 7 -15 4 -19 -11 -46 150 -29 171 12 15
1 17 -48 7z"/>
<path d="M1707 904 c-4 -4 -2 -13 4 -21 13 -15 3 -159 -12 -169 -19 -11 -8
-24 21 -24 31 0 37 9 20 26 -6 6 -7 33 -2 69 l7 60 38 -83 c20 -45 41 -82 46
-82 11 0 21 60 21 128 0 37 4 54 15 58 23 9 18 21 -12 27 -33 6 -49 -1 -34
-16 6 -6 11 -36 10 -66 l-1 -56 -34 73 c-18 39 -38 72 -43 72 -5 0 -16 2 -23
5 -8 3 -17 3 -21 -1z"/>
<path d="M1918 893 c-13 -3 -18 -15 -18 -44 0 -46 15 -52 24 -9 3 17 12 30 20
30 18 0 26 -31 26 -102 0 -42 -4 -59 -16 -66 -26 -14 0 -23 45 -16 38 6 58 24
27 24 -18 0 -26 31 -26 108 0 71 19 85 41 30 l13 -33 3 28 c7 50 -1 57 -64 56
-32 -1 -66 -3 -75 -6z"/>
</g>
</svg>
